<svg xmlns="http://www.w3.org/2000/svg" xmlns:xlink="http://www.w3.org/1999/xlink" aria-hidden="true" overflow="hidden" style="position:absolute;width:0;height:0">
  <defs>
    <path id="reuse-0" d="m6.693 0 10.658 10.184 14.32-3.492L21.488 17.35l3.492 14.321-10.658-10.184L.001 24.979l10.184-10.658L6.693 0z"/>
  </defs>
  <defs>
    <symbol id="icon-arrow" viewBox="0 0 36 32">
      <path d="M1 17.4a2 2 0 0 1 0-2.8L13.9 1.9a2 2 0 1 1 2.8 2.8L5.3 16l11.3 11.3a2 2 0 1 1-2.8 2.8L1 17.4zm35 .6H2.5v-4H36v4z"/>
    </symbol>
    <symbol id="icon-facebook" viewBox="0 0 19 32">
      <path d="M17.64 1.245a41.42 41.42 0 0 0-4.468-.23c-4.948 0-8.023 3.151-8.023 8.224v3.444H.993a.735.735 0 0 0-.735.735v5.664a.733.733 0 0 0 .735.735h4.156v11.358a.735.735 0 0 0 .735.735h5.853a.735.735 0 0 0 .736-.735V19.817h4.143a.733.733 0 0 0 .729-.64l.731-5.664a.724.724 0 0 0-.177-.581.725.725 0 0 0-.554-.25h-4.874V9.8c0-1.427.287-2.023 2.072-2.023h3a.735.735 0 0 0 .735-.735V1.973a.733.733 0 0 0-.64-.729zm-.831 5.061-2.266.001c-3.174 0-3.541 1.995-3.541 3.494v3.619a.735.735 0 0 0 .734.736h4.776l-.543 4.193h-4.231a.733.733 0 0 0-.735.735v11.355H6.622V19.084a.735.735 0 0 0-.735-.735H1.732v-4.193h4.155a.735.735 0 0 0 .735-.735V9.24c0-4.228 2.45-6.753 6.552-6.753 1.484 0 2.825.081 3.637.152v3.668z"/>
    </symbol>
    <symbol id="icon-instagram" viewBox="0 0 32 32">
      <path d="M16 8.923a7.075 7.075 0 0 0-6.539 4.369 7.075 7.075 0 0 0 9.246 9.246 7.082 7.082 0 0 0 4.369-6.539 7.077 7.077 0 0 0-7.077-7.077zm0 12.308a5.228 5.228 0 0 1-4.833-3.229 5.225 5.225 0 0 1 1.134-5.7 5.228 5.228 0 0 1 8.047.793c.575.86.882 1.871.882 2.906-.004 1.386-.556 2.714-1.537 3.694s-2.308 1.532-3.694 1.537zM22.769.923H9.231A8.307 8.307 0 0 0 .924 9.23v13.538a8.307 8.307 0 0 0 8.307 8.307h13.538a8.307 8.307 0 0 0 8.307-8.307V9.23A8.307 8.307 0 0 0 22.769.923zm6.462 21.846a6.46 6.46 0 0 1-6.462 6.462H9.231a6.46 6.46 0 0 1-6.462-6.462V9.231a6.46 6.46 0 0 1 6.462-6.462h13.538a6.46 6.46 0 0 1 6.462 6.462v13.538zM25.538 8a1.54 1.54 0 0 1-2.626 1.089 1.535 1.535 0 0 1-.333-1.677 1.542 1.542 0 0 1 1.422-.949 1.538 1.538 0 0 1 1.539 1.539z"/>
    </symbol>
    <symbol id="icon-telephone" viewBox="0 0 28 32">
      <path d="m25.655 22.957-.173-.216c-1.372-1.735-2.519-2.637-3.503-2.756-.851-.116-1.673.472-2.548 1.077l-.935.584a2.054 2.054 0 0 1-.327.132c-.547.155-1.927.245-2.708-.469-.909-.832-2.32-2.355-3.417-3.685-1.048-1.377-2.2-3.095-2.801-4.176-.508-.916-.083-2.197.201-2.672.056-.093.129-.185.211-.276l.824-.761c.012-.012.017-.027.028-.037.008-.008.021-.005.031-.012.744-.628 1.513-1.275 1.619-2.105.124-.976-.483-2.296-1.857-4.029l-.168-.216C9.281 2.249 7.995.6 6.147.872c-.727.108-1.376.356-2.045.776-.007.004-.011.012-.016.016s-.012.004-.017.008l-.932.691c-.009.005-.015.017-.024.025-.007.007-.017.008-.025.015a13.74 13.74 0 0 0-.323.28c-.945.843-2.992 3.289-1.596 7.815.901 2.923 2.76 6.333 5.388 9.883l-.025.021 1.449 1.805.012-.009c2.849 3.371 5.749 5.976 8.407 7.553 1.773 1.053 3.323 1.401 4.597 1.401 1.677 0 2.879-.603 3.481-.995l.379-.253c.043-.029.073-.071.104-.108l.825-.621c.009-.008.015-.019.024-.027.004-.004.011-.003.016-.007.587-.536.993-1.097 1.276-1.763.732-1.705-.579-3.339-1.445-4.42zm.465 4.002c-.22.517-.541.957-1.005 1.384l-1.228.924c-1.112.723-3.489 1.616-6.943-.435-2.657-1.577-5.583-4.244-8.461-7.712l-.779-.984c-2.711-3.595-4.617-7.037-5.517-9.955-1.169-3.793.304-5.828 1.291-6.707.1-.091.2-.175.299-.259l.004-.004.895-.663a4.067 4.067 0 0 1 1.628-.624c1.239-.187 2.247 1.12 2.987 2.069l.173.22C11 6.15 11.148 7.072 11.1 7.448c-.053.417-.688.952-1.248 1.423l-.079.067c-.003.003-.004.007-.007.009l-.012.007-.852.788c-.005.005-.008.012-.013.019s-.016.009-.021.016a3.007 3.007 0 0 0-.337.449c-.479.801-.931 2.457-.217 3.739.623 1.12 1.808 2.889 2.897 4.319 1.139 1.381 2.591 2.949 3.532 3.809.705.644 1.687.86 2.536.86.455 0 .872-.063 1.188-.152.167-.048.339-.117.516-.204.011-.005.016-.015.027-.021.005-.003.013-.001.019-.005l.989-.619c.032-.021.053-.049.08-.076l.012.013c.609-.423 1.304-.919 1.739-.847.385.047 1.26.417 2.799 2.36l.177.223c.749.935 1.776 2.215 1.297 3.333z"/>
    </symbol>
    <symbol id="icon-mobile-menu" viewBox="0 0 46 32">
      <path d="M45.714 29.726A2.274 2.274 0 0 1 43.44 32H25.131a2.274 2.274 0 1 1 0-4.548H43.44a2.273 2.273 0 0 1 2.274 2.274zm0-13.726a2.274 2.274 0 0 1-2.274 2.274H2.274a2.274 2.274 0 1 1 0-4.548H43.44A2.274 2.274 0 0 1 45.714 16zM43.44 4.549a2.274 2.274 0 1 0 0-4.548H15.989a2.274 2.274 0 1 0 0 4.548H43.44z"/>
    </symbol>
    <symbol id="icon-arrow-dark-small" viewBox="0 0 32 32">
      <use xlink:href="#reuse-0"/>
    </symbol>
    <symbol id="icon-across" viewBox="0 0 32 32">
      <path stroke-linecap="round" stroke-width="4.571" d="M2.286 2.286 16 16 29.714 2.286M2.286 29.714 16 16l13.714 13.714"/>
    </symbol>
  
    <symbol id="icon-cosmetic-products" viewBox="0 0 31 32">
      <path d="M8.56 12.129H-.121a.472.472 0 0 0-.482.463v2.776c0 .256.216.463.482.463h.482v10.642c0 .256.216.463.482.463h6.752a.472.472 0 0 0 .482-.463V15.831h.482a.472.472 0 0 0 .482-.463v-2.776a.473.473 0 0 0-.482-.463zM3.255 20.92v-.925h2.894v-.925H3.255v-.925h3.858v6.015H3.255v-2.313h.965v-.925h-.965zm3.858-3.701h-4.34a.472.472 0 0 0-.482.463v6.94c0 .256.216.463.482.463h4.34v.925H1.326V15.831h5.787v1.388zm.965-2.314H.362v-1.851h7.716v1.851zm6.872-2.689V8.833a.48.48 0 0 0-.482-.476h-.482V5.975h.964v-.953H9.645v.953h3.376v2.382h-.482a.478.478 0 0 0-.482.476v3.383c-1.099.222-1.929 1.183-1.929 2.334v11.909a.48.48 0 0 0 .482.476h5.787a.478.478 0 0 0 .482-.476V14.55c0-1.15-.83-2.112-1.929-2.334zM13.021 9.31h.964v2.858h-.964V9.31zm-.482 3.811h1.929a1.44 1.44 0 0 1 1.447 1.429v.476h-4.823v-.476a1.44 1.44 0 0 1 1.447-1.429zm3.376 10.956h-4.823v-.953h1.929v-.953h-1.929v-6.193h4.823v8.098zm-4.823 1.906v-.953h4.823v.953h-4.823zm16.186-14.446H19.14a.46.46 0 0 0-.452.467v14.465a.46.46 0 0 0 .452.467h8.138a.46.46 0 0 0 .452-.467V12.004a.46.46 0 0 0-.452-.467zm-.452 14.465h-7.234V12.47h7.234v13.532z"/>
      <path d="M6.631 21.013H5.425v.592h1.206v-.592zm8.44 1.184h-1.206v1.185h1.206v-1.185zm-1.507-1.184c1.164 0 2.11-.93 2.11-2.073s-.946-2.073-2.11-2.073-2.11.93-2.11 2.073.946 2.073 2.11 2.073zm0-3.109c.582 0 1.055.465 1.055 1.036s-.473 1.036-1.055 1.036-1.055-.465-1.055-1.036.473-1.036 1.055-1.036zm8.515-1.629h2.261c.873 0 1.582-.664 1.582-1.481s-.71-1.481-1.582-1.481h-2.261c-.873 0-1.582.664-1.582 1.481s.71 1.481 1.582 1.481zm2.938-1.481c0 .35-.304.634-.678.634h-.678v-1.269h.678c.374 0 .678.285.678.635zm-2.938-.634h.678v1.269h-.678c-.374 0-.678-.285-.678-.634s.304-.635.678-.635zm0 6.853h2.261c.873 0 1.582-.797 1.582-1.777s-.71-1.777-1.582-1.777h-2.261c-.873 0-1.582.797-1.582 1.777s.71 1.777 1.582 1.777zm2.938-1.777c0 .42-.304.761-.678.761h-.678v-1.523h.678c.374 0 .678.342.678.761zm-2.938-.761h.678v1.523h-.678c-.374 0-.678-.342-.678-.761s.304-.761.678-.761zm0 6.684h2.261c.873 0 1.582-.797 1.582-1.777s-.71-1.777-1.582-1.777h-2.261c-.873 0-1.582.797-1.582 1.777s.71 1.777 1.582 1.777zm2.938-1.777c0 .42-.304.761-.678.761h-.678V22.62h.678c.374 0 .678.342.678.761zm-2.938-.761h.678v1.523h-.678c-.374 0-.678-.342-.678-.761s.304-.761.678-.761z"/>
    </symbol>
    <symbol id="icon-crown" viewBox="0 0 32 32">
      <path d="M29.687 10.326c-.253-.229-.559-.376-.883-.425s-.655.003-.954.15l-6.312 3.08a.215.215 0 0 1-.184.021.243.243 0 0 1-.142-.13l-3.688-7.287c-.15-.301-.37-.553-.638-.728s-.575-.268-.887-.268c-.312 0-.618.092-.887.268s-.489.427-.638.728l-3.687 7.287a.239.239 0 0 1-.142.13c-.03.01-.062.014-.094.01s-.062-.014-.09-.031l-6.313-3.08c-.298-.149-.628-.202-.953-.155s-.631.194-.883.423-.442.532-.546.873a2.112 2.112 0 0 0-.043 1.059l3.188 14.891c.054.252.154.489.293.697s.316.383.519.513a1.585 1.585 0 0 0 1.363.206 30.563 30.563 0 0 1 17.812-.014 1.602 1.602 0 0 0 1.367-.186 1.8 1.8 0 0 0 .524-.516c.141-.209.242-.447.297-.701l3.175-14.891c.079-.348.067-.713-.034-1.054s-.289-.643-.541-.871zm-.875 1.54-3.188 14.891a.321.321 0 0 1-.112.179.29.29 0 0 1-.2.028 31.912 31.912 0 0 0-18.625 0 .23.23 0 0 1-.197-.029.284.284 0 0 1-.116-.178L3.186 11.866a.324.324 0 0 1 .003-.124.288.288 0 0 1 .138-.189.235.235 0 0 1 .109-.03l.1.028 6.325 3.094c.399.198.851.222 1.266.069s.762-.472.972-.894l3.688-7.287a.26.26 0 0 1 .088-.106.22.22 0 0 1 .25 0 .248.248 0 0 1 .088.106L19.9 13.82c.21.422.557.742.972.894s.867.128 1.266-.069l6.325-3.094c.043-.021.09-.028.137-.021s.09.029.126.062c.037.032.064.075.08.124s.018.101.008.151zm-8.062 10.45c-.021.203-.109.391-.247.527s-.317.213-.503.215h-.075a35.646 35.646 0 0 0-7.85 0c-.197.023-.395-.041-.549-.177s-.254-.335-.276-.552c-.018-.218.043-.435.169-.605s.308-.278.506-.302a35.151 35.151 0 0 1 8.15 0c.196.024.375.131.501.297s.188.38.174.596z"/>
    </symbol>
    <symbol id="icon-university" viewBox="0 0 29 32">
      <path d="M14.612.072c-1.145 0-2.215.522-3.127 1.376S9.793 3.492 9.142 4.933a18.01 18.01 0 0 0-.391.939 18.142 18.142 0 0 0-1.011-.131 14.909 14.909 0 0 0-1.15-.072c-1.12-.027-2.143.087-3.04.359-1.196.363-2.182 1.028-2.755 2.02s-.656 2.179-.372 3.396c.284 1.217.924 2.488 1.847 3.772.194.269.401.539.619.81-.214.264-.42.533-.618.809C1.348 18.119.708 19.39.424 20.607s-.201 2.404.372 3.396 1.559 1.658 2.755 2.02 2.616.444 4.19.287c.33-.033.667-.077 1.01-.131.122.317.252.631.392.941.651 1.441 1.431 2.631 2.343 3.485s1.982 1.376 3.127 1.376c1.145 0 2.215-.522 3.127-1.376s1.692-2.044 2.343-3.485c.14-.31.27-.624.392-.941a17.9 17.9 0 0 0 1.009.131c1.573.157 2.994.076 4.19-.287s2.182-1.028 2.755-2.02.656-2.179.372-3.396-.924-2.488-1.847-3.772a17.818 17.818 0 0 0-.618-.809c.214-.264.42-.534.619-.809.923-1.284 1.563-2.555 1.847-3.772s.201-2.404-.372-3.396-1.559-1.658-2.755-2.02c-.897-.272-1.92-.385-3.039-.359-.373.009-.757.033-1.15.072-.33.033-.667.077-1.01.131-.122-.317-.252-.63-.391-.939-.651-1.441-1.431-2.631-2.343-3.485S15.76.073 14.615.073zm0 1.274c.764 0 1.513.336 2.256 1.032s1.452 1.749 2.053 3.08c.098.217.191.436.279.657-1.46.325-3.007.823-4.588 1.488a27.09 27.09 0 0 0-4.587-1.488c.09-.226.183-.446.279-.658.601-1.331 1.31-2.384 2.053-3.08s1.492-1.031 2.256-1.031zM6.186 6.941a13.553 13.553 0 0 1 1.428.068c.232.023.47.053.711.088a27.024 27.024 0 0 0-1.005 4.717 27.01 27.01 0 0 0-3.583 3.229 15.801 15.801 0 0 1-.431-.571c-.852-1.185-1.409-2.326-1.641-3.318s-.147-1.808.235-2.469c.382-.662 1.047-1.143 2.021-1.438.639-.194 1.405-.298 2.266-.306zm16.852 0c.861.008 1.626.112 2.266.306.974.295 1.639.776 2.021 1.438s.466 1.478.235 2.469c-.231.991-.789 2.132-1.641 3.318-.14.194-.283.384-.431.571a27.13 27.13 0 0 0-3.582-3.229 27.056 27.056 0 0 0-1.005-4.718 14.236 14.236 0 0 1 1.763-.154c.125-.003.25-.004.375-.003zm-3.404.385c.339 1.053.619 2.214.829 3.457a34.473 34.473 0 0 0-4.237-2.446 24.633 24.633 0 0 1 3.408-1.01zm-10.044 0a24.76 24.76 0 0 1 3.407 1.01 34.599 34.599 0 0 0-4.236 2.445c.209-1.243.49-2.404.829-3.456zm5.022 1.668c1.037.457 2.089.989 3.138 1.595s2.037 1.252 2.951 1.921c.122 1.127.188 2.304.188 3.516s-.066 2.388-.188 3.514a32.84 32.84 0 0 1-6.09 3.516c-1.037-.457-2.09-.989-3.139-1.595s-2.036-1.251-2.95-1.92c-.122-1.127-.188-2.304-.188-3.515s.066-2.39.188-3.517a32.822 32.822 0 0 1 6.088-3.515zm.086 1.917-3.648 2.251 3.648 2.251 3.648-2.251-3.648-2.251zm-7.552 2.668a35.027 35.027 0 0 0 0 4.892 24.586 24.586 0 0 1-2.579-2.446 24.69 24.69 0 0 1 2.579-2.446zm14.932.001a24.77 24.77 0 0 1 2.578 2.445 24.666 24.666 0 0 1-2.578 2.445 34.992 34.992 0 0 0 0-4.891zm-11.85.572v4.445l3.831 2.364v-4.445l-3.831-2.365zm8.936.002-3.83 2.364v4.443l3.83-2.364v-4.443zM3.736 17.007a26.94 26.94 0 0 0 3.583 3.229c.214 1.701.556 3.29 1.005 4.716-.241.035-.478.064-.71.088-1.453.145-2.72.057-3.693-.238s-1.639-.776-2.021-1.438c-.382-.662-.466-1.478-.235-2.469s.789-2.132 1.641-3.318c.139-.193.283-.384.43-.57zm21.752 0c.15.191.295.381.43.57.852 1.185 1.409 2.326 1.641 3.318s.147 1.808-.235 2.469c-.382.662-1.047 1.143-2.021 1.438s-2.241.383-3.693.238a15.414 15.414 0 0 1-.709-.088 27.036 27.036 0 0 0 1.005-4.718 27.057 27.057 0 0 0 3.582-3.228zm-5.025 4.26a24.682 24.682 0 0 1-.829 3.457 24.781 24.781 0 0 1-3.408-1.011 35.272 35.272 0 0 0 4.236-2.446zm-11.702.001a35.248 35.248 0 0 0 4.235 2.446c-1.181.44-2.326.778-3.407 1.01a24.773 24.773 0 0 1-.829-3.456zm5.889.058.046.029.046-.029h-.092zm-.038 3.121a27.128 27.128 0 0 0 4.588 1.488c-.088.222-.181.442-.279.659-.601 1.33-1.31 2.384-2.053 3.08s-1.492 1.032-2.256 1.032c-.764 0-1.513-.336-2.256-1.032s-1.452-1.749-2.053-3.08a16.45 16.45 0 0 1-.279-.659 27.128 27.128 0 0 0 4.588-1.488z"/>
    </symbol>
    <symbol id="icon-arrow-dark-small" viewBox="0 0 32 32">
      <use xlink:href="#reuse-0"/>
    </symbol>
  </defs>
</svg>
